<svg width="21" height="16" viewBox="0 0 21 16" fill="none" xmlns="http://www.w3.org/2000/svg">
<path d="M10.2624 15.0059H10.2424C10.1804 15.0059 3.9774 14.9939 2.4124 14.5689C1.55182 14.3371 0.879747 13.6646 0.648398 12.8039C0.366976 11.2163 0.231079 9.60624 0.242398 7.9939C0.235127 6.37891 0.374701 4.76661 0.659398 3.1769C0.897105 2.31541 1.56623 1.63985 2.4254 1.3939C3.9474 0.993896 9.9794 0.993896 10.2354 0.993896H10.2564C10.3194 0.993896 16.5384 1.0059 18.0874 1.4309C18.9462 1.66391 19.6169 2.33499 19.8494 3.1939C20.1398 4.78744 20.2761 6.40523 20.2564 8.0249C20.2634 9.63793 20.1235 11.2482 19.8384 12.8359C19.6041 13.6955 18.9316 14.3665 18.0714 14.5989C16.5514 15.0019 10.5184 15.0059 10.2624 15.0059ZM8.2624 4.9989L8.2574 10.9989L13.4694 7.9989L8.2624 4.9989Z" fill="#D9230F"/>
</svg>
